<svg width="49" height="48" viewBox="0 0 49 48" fill="none" xmlns="http://www.w3.org/2000/svg">
<path d="M6.5 18C6.5 17.0572 6.5 16.5858 6.79289 16.2929C7.08579 16 7.55719 16 8.5 16H40.5C41.4428 16 41.9142 16 42.2071 16.2929C42.5 16.5858 42.5 17.0572 42.5 18V24C42.5 24.9428 42.5 25.4142 42.2071 25.7071C41.9142 26 41.4428 26 40.5 26H38.5C37.5572 26 37.0858 26 36.7929 26.2929C36.5 26.5858 36.5 27.0572 36.5 28V38C36.5 38.9428 36.5 39.4142 36.2071 39.7071C35.9142 40 35.4428 40 34.5 40H14.5C13.5572 40 13.0858 40 12.7929 39.7071C12.5 39.4142 12.5 38.9428 12.5 38V28C12.5 27.0572 12.5 26.5858 12.2071 26.2929C11.9142 26 11.4428 26 10.5 26H8.5C7.55719 26 7.08579 26 6.79289 25.7071C6.5 25.4142 6.5 24.9428 6.5 24V18Z" stroke="#3A393A"/>
<path d="M10.5 26H38.5" stroke="#3A393A" stroke-linecap="round"/>
<path d="M24.5 14L24.5 40" stroke="#3A393A" stroke-linecap="round"/>
<path d="M24.5 14L21.3362 10.8362C20.1287 9.62865 18.6566 8.71886 17.0365 8.17884L13.1325 6.87748C11.8374 6.4458 10.5 7.40974 10.5 8.77485V12.5585C10.5 13.4193 11.0509 14.1836 11.8675 14.4558L16.5 16" stroke="#3A393A" stroke-linecap="round"/>
<path d="M24.5 14L27.6638 10.8362C28.8713 9.62865 30.3434 8.71886 31.9635 8.17884L35.8675 6.87748C37.1626 6.4458 38.5 7.40974 38.5 8.77485V12.5585C38.5 13.4193 37.9491 14.1836 37.1325 14.4558L32.5 16" stroke="#3A393A" stroke-linecap="round"/>
</svg>
