<svg width="25" height="24" viewBox="0 0 25 24" fill="none" xmlns="http://www.w3.org/2000/svg">
<path d="M5.63698 13.7347L11.9575 19.6722C12.1454 19.8487 12.2393 19.9369 12.3459 19.9715C12.4461 20.0039 12.5539 20.0039 12.6541 19.9715C12.7607 19.9369 12.8546 19.8487 13.0425 19.6722L19.363 13.7347C21.1414 12.0642 21.3573 9.31509 19.8616 7.38734L19.5804 7.02486C17.7912 4.71871 14.1997 5.10547 12.9424 7.73968C12.7648 8.11178 12.2352 8.11178 12.0576 7.73968C10.8003 5.10547 7.20884 4.71871 5.41959 7.02485L5.13835 7.38733C3.64268 9.31509 3.85864 12.0642 5.63698 13.7347Z" stroke="#3A393A"/>
</svg>