<svg width="40" height="40" viewBox="0 0 40 40" fill="none" xmlns="http://www.w3.org/2000/svg">
<path d="M33.3346 14.6667C33.3346 10.8955 33.3346 9.00989 32.1631 7.83832C30.9915 6.66675 29.1059 6.66675 25.3346 6.66675H14.668C10.8967 6.66675 9.01111 6.66675 7.83954 7.83832C6.66797 9.00989 6.66797 10.8955 6.66797 14.6667V31.3334C6.66797 32.2762 6.66797 32.7476 6.96086 33.0405C7.25376 33.3334 7.72516 33.3334 8.66797 33.3334H25.3346C29.1059 33.3334 30.9915 33.3334 32.1631 32.1618C33.3346 30.9903 33.3346 29.1047 33.3346 25.3334V14.6667Z" stroke="#3A393A"/>
<path d="M15 16.6667L25 16.6667" stroke="#3A393A" stroke-linecap="round" stroke-linejoin="round"/>
<path d="M15 23.3333H20" stroke="#3A393A" stroke-linecap="round" stroke-linejoin="round"/>
</svg>