<svg width="24" height="24" viewBox="0 0 24 24" fill="none" xmlns="http://www.w3.org/2000/svg">
<path d="M17.5454 15.4373C18.2938 15.4294 18.9482 14.924 19.1402 14.199L20.9858 7.32601C21.0446 7.10265 20.9153 6.87538 20.692 6.81269C20.6567 6.80485 20.6214 6.79701 20.5862 6.79701H6.70297L5.75861 3.30956C5.71159 3.12931 5.54701 3 5.35893 3H3V3.83464H5.02977L5.94278 7.24372C5.93886 7.27115 5.93886 7.29858 5.94278 7.32601L7.82365 14.2225C7.83541 14.2774 7.855 14.3362 7.87459 14.391L8.50939 16.7029C7.89811 17.0282 7.48275 17.6708 7.48275 18.4114C7.48275 19.4811 8.34873 20.3471 9.41848 20.3471C10.4882 20.3471 11.3542 19.4811 11.3542 18.4114C11.3542 18.0783 11.268 17.7609 11.1191 17.4866C11.0838 17.4239 11.0486 17.3612 11.0055 17.2986H15.931C15.7116 17.612 15.5783 17.996 15.5783 18.4114C15.5783 19.4811 16.4443 20.3471 17.5141 20.3471C18.5838 20.3471 19.4498 19.4811 19.4498 18.4114C19.4498 17.9059 19.2578 17.4475 18.9404 17.1026C18.5995 16.7147 18.0979 16.4678 17.5376 16.4639H9.34403L9.05014 15.3863C9.17553 15.4177 9.30484 15.4373 9.43415 15.4373H17.5454ZM17.518 17.2986C18.1332 17.2986 18.6308 17.7962 18.6308 18.4114C18.6308 19.0266 18.1332 19.5243 17.518 19.5243C16.9028 19.5243 16.4051 19.0266 16.4051 18.4114C16.4051 17.7962 16.9028 17.2986 17.518 17.2986ZM9.41848 17.2986C10.0337 17.2986 10.5274 17.8001 10.5274 18.4114C10.5274 19.0266 10.0298 19.5243 9.41456 19.5243C8.79936 19.5243 8.30563 19.0266 8.30563 18.4114C8.30563 17.7962 8.80328 17.2986 9.41848 17.2986ZM8.67397 14.0736L7.73745 10.6489L6.90281 7.63949H20.0258L18.3291 14.0109C18.2351 14.3754 17.9098 14.6301 17.5337 14.6379H9.42631C9.08541 14.6183 8.7876 14.3989 8.67397 14.0736Z" fill="#3A393A"/>
</svg>