<svg width="41" height="40" viewBox="0 0 41 40" fill="none" xmlns="http://www.w3.org/2000/svg">
<path d="M29.668 10.1438H24.6105V7.29893C24.6105 6.95123 24.326 6.66675 23.9783 6.66675H2.80015C2.45245 6.66675 2.16797 6.95123 2.16797 7.29893V28.4771C2.16797 28.8248 2.45245 29.1093 2.80015 29.1093H6.00849C6.30877 30.99 7.94455 32.4282 9.91222 32.4282C11.8799 32.4282 13.5078 30.99 13.816 29.1093H23.9783H27.1866C27.4869 30.99 29.1227 32.4282 31.0904 32.4282C33.0581 32.4282 34.6859 30.99 34.9941 29.1093H38.2024C38.5501 29.1093 38.8346 28.8248 38.8346 28.4771V19.3104C38.8346 14.253 34.7254 10.1438 29.668 10.1438ZM37.5545 18.7573H31.3986C30.0868 18.7573 29.0121 17.6905 29.0121 16.3708V11.4081H29.668C33.8404 11.4081 37.2621 14.656 37.5545 18.7573ZM23.3461 7.93112V22.0762H3.43234V7.93112H23.3461ZM6.00849 27.8449H3.43234V23.3406H23.3461V27.8449H13.816C13.5157 25.9642 11.8799 24.5259 9.91222 24.5259C7.94455 24.5259 6.31668 25.9642 6.00849 27.8449ZM9.91222 31.1639C8.43449 31.1639 7.22544 29.9548 7.22544 28.4771C7.22544 26.9994 8.43449 25.7903 9.91222 25.7903C11.39 25.7903 12.599 26.9994 12.599 28.4771C12.599 29.9548 11.39 31.1639 9.91222 31.1639ZM31.0904 31.1639C29.6126 31.1639 28.4036 29.9548 28.4036 28.4771C28.4036 26.9994 29.6126 25.7903 31.0904 25.7903C32.5681 25.7903 33.7772 26.9994 33.7772 28.4771C33.7772 29.9548 32.5681 31.1639 31.0904 31.1639ZM34.9941 27.8449C34.6938 25.9642 33.0581 24.5259 31.0904 24.5259C29.1227 24.5259 27.4948 25.9642 27.1866 27.8449H24.6105V11.4081H27.7477V16.3708C27.7477 18.3859 29.3835 20.0216 31.3986 20.0216H37.5703V27.8449H34.9941Z" fill="#3A393A"/>
</svg>