<svg width="170" height="33" viewBox="0 0 170 33" fill="none" xmlns="http://www.w3.org/2000/svg">
<path d="M0 23.5829L0.00580366 8.19891H2.07191C2.87281 8.19891 3.10496 8.42793 3.10496 9.18367V10.8955H3.20362C4.63713 8.92603 6.30278 7.93555 8.06709 7.93555C10.8645 7.93555 12.4663 9.67605 12.4663 13.2315V24.768H10.3363C9.63408 24.768 9.36711 24.4703 9.36711 23.5829V13.9529C9.36711 11.6856 8.53719 10.7639 7.1327 10.7639C6.03581 10.7639 4.434 11.8803 3.09916 14.0846V24.768H0.969212C0.266969 24.7623 0 24.4703 0 23.5829Z" fill="#DC0719"/>
<path d="M16.0625 20.5581C16.0625 17.4664 18.796 14.9358 22.9282 14.9358C23.9613 14.9358 24.7622 15.0045 25.4296 15.1362V13.1953C25.4296 11.3231 24.3966 10.304 22.5336 10.304C20.4675 10.304 19.4693 11.1227 19.4693 12.3766V13.3957H18.0009C17.3335 13.3957 16.8344 12.8346 16.8344 11.8155C16.8344 9.87462 19.0688 7.93945 23.0966 7.93945C26.7296 7.93945 28.494 9.74866 28.494 12.743V24.7777H26.5962C25.8649 24.7777 25.5631 24.5143 25.5631 23.8902V22.8024H25.4644C24.1993 24.3139 22.7309 25.0067 20.63 25.0067C18.059 24.9952 16.0567 23.3177 16.0625 20.5581ZM25.4238 20.1344V17.2088C24.6229 17.0771 23.8568 17.0084 22.9224 17.0084C20.659 17.0084 19.2255 18.3538 19.2255 20.1974C19.2255 21.7432 20.2237 22.5963 21.5934 22.5963C23.1546 22.5963 24.6577 21.5772 25.4238 20.1344Z" fill="#DC0719"/>
<path d="M33.3906 23.5868L33.3964 8.20282H35.4625C36.2634 8.20282 36.4956 8.43183 36.4956 9.18758V10.8995H36.5942C38.0278 8.92994 39.6934 7.93945 41.4577 7.93945C43.5877 7.93945 44.9573 8.92421 45.5899 10.8995H45.6886C47.1221 8.92994 48.8574 7.93945 50.6217 7.93945C53.4191 7.93945 55.0847 9.67996 55.0847 13.2354V24.772H52.9548C52.2525 24.772 51.9856 24.4742 51.9856 23.5868V13.9568C51.9856 11.6208 51.0512 10.7678 49.6525 10.7678C48.5846 10.7678 47.1221 11.6552 45.8511 13.6247V24.7662H43.7153C43.0131 24.7662 42.7519 24.4685 42.7519 23.5811V13.9511C42.7519 11.6151 41.8872 10.762 40.4885 10.762C39.3858 10.762 37.8246 11.8785 36.4898 14.0827V24.7662H34.3598C33.6576 24.772 33.3906 24.4742 33.3906 23.5868Z" fill="#DC0719"/>
<path d="M59.9766 31.614L59.9824 8.20881H62.0485C62.8494 8.20881 63.0815 8.43783 63.0815 9.16494V10.2528H63.1802C64.4454 8.77562 65.8441 7.95117 67.7128 7.95117C70.812 7.95117 73.2089 10.2184 73.2089 16.0411C73.2089 21.795 69.9066 25.0814 65.8441 25.0814C64.6137 25.0814 63.8418 24.9497 63.0757 24.652V32.9995H60.9458C60.2435 32.9938 59.9766 32.6961 59.9766 31.614ZM70.0459 16.396C70.0459 11.9933 68.5138 10.6764 66.8829 10.6764C65.5481 10.6764 64.1494 11.5982 63.0815 13.1097V22.379C63.8824 22.7054 64.6775 22.837 65.6816 22.837C68.0437 22.837 70.0459 20.9649 70.0459 16.396Z" fill="#DC0719"/>
<path d="M75.9062 16.5937C75.9062 10.9084 79.1737 7.91406 82.7081 7.91406C86.2078 7.91406 88.8716 10.2844 88.8716 15.3799C88.8716 16.4963 88.4364 17.1204 87.1073 17.1204H79.0751C79.1389 21.1281 81.0077 22.611 83.3756 22.611C85.2385 22.611 86.8055 22.3133 88.239 21.7236L88.5408 22.4793C88.7382 22.9717 88.6047 23.5671 88.1056 23.8935C87.0377 24.6149 85.3372 25.0099 82.9751 25.0099C78.8719 25.0099 75.9062 22.4793 75.9062 16.5937ZM85.8073 14.9562C85.8073 11.7672 84.4725 10.2557 82.5747 10.2557C80.7755 10.2557 79.1737 11.9619 79.0751 14.9562H85.8073Z" fill="#DC0719"/>
<path d="M92.4688 23.5376L92.4746 8.21662H94.5059C95.3068 8.21662 95.5738 8.44564 95.5738 9.30444V11.7377H95.7073C96.9725 8.97809 98.406 7.95898 99.9091 7.95898C100.24 7.95898 100.507 8.02769 100.745 8.15937C101.209 8.42274 101.343 8.81778 101.244 9.44184L101.047 10.919C100.716 10.8216 100.182 10.7873 99.8163 10.7873C98.5163 10.7873 96.7519 12.2358 95.5854 15.2874V24.7857H93.4555C92.73 24.7857 92.463 24.488 92.4688 23.5376Z" fill="#DC0719"/>
<path d="M103.997 23.6056V10.4545H102.297V8.22158H103.997V5.09555C103.997 1.94089 106.063 0 108.896 0C110.062 0 110.596 0.131683 111.159 0.463752C111.623 0.727118 111.722 1.18514 111.594 1.78058L111.362 2.76534C110.596 2.50197 109.894 2.37029 109.064 2.37029C107.799 2.37029 107.096 3.09168 107.096 4.70623V8.22158H110.927V9.24069C110.927 10.0651 110.526 10.4545 109.563 10.4545H107.096V24.785H104.967C104.299 24.785 103.997 24.493 103.997 23.6056Z" fill="#DC0719"/>
<path d="M113.293 19.7935V8.22266H115.359C116.061 8.22266 116.392 8.45167 116.392 9.37345V19.0722C116.392 21.3737 117.327 22.2955 118.557 22.2955C119.723 22.2955 121.192 21.2134 122.492 18.9118V8.22838H124.558C125.289 8.22838 125.591 8.55473 125.591 9.44215V24.7918H123.49C122.788 24.7918 122.492 24.494 122.492 23.6066V22.1295H122.358C120.96 24.1333 119.456 25.0208 117.727 25.0208C114.959 25.0208 113.293 23.3089 113.293 19.7935Z" fill="#DC0719"/>
<path d="M130.785 23.6102L130.791 8.22626H132.857C133.658 8.22626 133.89 8.45527 133.89 9.21101V10.9229H133.989C135.422 8.95337 137.088 7.96289 138.858 7.96289C140.988 7.96289 142.358 8.94765 142.99 10.9229H143.089C144.522 8.95337 146.258 7.96289 148.022 7.96289C150.819 7.96289 152.485 9.70339 152.485 13.2588V24.7954H150.355C149.653 24.7954 149.386 24.4977 149.386 23.6102V13.9802C149.386 11.6443 148.452 10.7912 147.053 10.7912C145.985 10.7912 144.522 11.6786 143.251 13.6481V24.7897H141.121C140.419 24.7897 140.152 24.4919 140.152 23.6045V13.9745C140.152 11.6386 139.288 10.7855 137.889 10.7855C136.792 10.7855 135.225 11.9019 133.89 14.1062V24.7897H131.76C131.052 24.7897 130.785 24.4977 130.785 23.6102Z" fill="#DC0719"/>
<path d="M156.109 16.6093C156.109 10.924 159.377 7.92969 162.911 7.92969C166.411 7.92969 169.075 10.3 169.075 15.3955C169.075 16.512 168.639 17.136 167.31 17.136H159.278C159.342 21.1495 161.211 22.6266 163.573 22.6266C165.442 22.6266 167.003 22.3289 168.436 21.7392L168.738 22.4949C168.935 22.9873 168.802 23.5828 168.303 23.9091C167.235 24.6305 165.535 25.0255 163.172 25.0255C159.075 25.0255 156.109 22.4949 156.109 16.6093ZM166.005 14.9719C166.005 11.7828 164.676 10.2714 162.772 10.2714C160.973 10.2714 159.371 11.9775 159.272 14.9719H166.005Z" fill="#DC0719"/>
</svg>
