<svg width="48" height="48" viewBox="0 0 48 48" fill="none" xmlns="http://www.w3.org/2000/svg">
<path d="M8 17.6569C8 16.8394 8 16.4306 8.15224 16.0631C8.30448 15.6955 8.59351 15.4065 9.17157 14.8284L12.8284 11.1716C13.4065 10.5935 13.6955 10.3045 14.0631 10.1522C14.4306 10 14.8394 10 15.6569 10H32.3431C33.1606 10 33.5694 10 33.9369 10.1522C34.3045 10.3045 34.5935 10.5935 35.1716 11.1716L38.8284 14.8284C39.4065 15.4065 39.6955 15.6955 39.8478 16.0631C40 16.4306 40 16.8394 40 17.6569V36C40 37.8856 40 38.8284 39.4142 39.4142C38.8284 40 37.8856 40 36 40H12C10.1144 40 9.17157 40 8.58579 39.4142C8 38.8284 8 37.8856 8 36V17.6569Z" stroke="#3A393A"/>
<path d="M8 20H40" stroke="#3A393A" stroke-linecap="round"/>
<path d="M18 26.7187L17.6464 27.0723L17.2929 26.7187L17.6464 26.3652L18 26.7187ZM22.2188 36.5C21.9426 36.5 21.7188 36.2761 21.7188 36C21.7188 35.7239 21.9426 35.5 22.2188 35.5L22.2188 36.5ZM21.8652 31.2911L17.6464 27.0723L18.3536 26.3652L22.5723 30.5839L21.8652 31.2911ZM17.6464 26.3652L21.8652 22.1464L22.5723 22.8536L18.3536 27.0723L17.6464 26.3652ZM18 26.2187L26.8594 26.2187L26.8594 27.2187L18 27.2187L18 26.2187ZM26.8594 36.5L22.2188 36.5L22.2188 35.5L26.8594 35.5L26.8594 36.5ZM32 31.3594C32 34.1985 29.6985 36.5 26.8594 36.5L26.8594 35.5C29.1462 35.5 31 33.6462 31 31.3594L32 31.3594ZM26.8594 26.2187C29.6985 26.2187 32 28.5203 32 31.3594L31 31.3594C31 29.0726 29.1462 27.2187 26.8594 27.2187L26.8594 26.2187Z" fill="#3A393A"/>
</svg>
